<svg width="86" height="100" viewBox="0 0 86 100" fill="none" xmlns="http://www.w3.org/2000/svg">
<rect width="86" height="100" fill="#171515"/>
<path d="M48.7292 36.375L43 29.0208L47.1042 28.2083L52.8125 35.5625L48.7292 36.375ZM63.0417 33.5417L61.4167 25.375L53.2292 27L58.9375 34.375L63.0417 33.5417ZM42.6042 37.6042L36.8959 30.2083L32.7917 31.0625L38.5209 38.4167L42.6042 37.6042ZM22.1667 41.6667V62.5C22.1667 63.6051 22.6057 64.6649 23.3871 65.4463C24.1685 66.2277 25.2283 66.6667 26.3334 66.6667H59.6667C61.9792 66.6667 63.8334 64.8125 63.8334 62.5V41.6667H22.1667ZM26.6667 32.2917L24.625 32.6875C23.5447 32.9078 22.595 33.5457 21.9825 34.4626C21.37 35.3794 21.1442 36.5009 21.3542 37.5833L22.1667 41.6667L32.375 39.6458L26.6667 32.2917ZM40.9167 75H45.0834V70.8333H40.9167V75ZM32.5834 75H36.75V70.8333H32.5834V75ZM49.25 75H53.4167V70.8333H49.25V75Z" fill="white" fill-opacity="0.47"/>
<path d="M29.8295 48.4545C29.7784 48.0227 29.571 47.6875 29.2074 47.4489C28.8438 47.2102 28.3977 47.0909 27.8693 47.0909C27.483 47.0909 27.1449 47.1534 26.8551 47.2784C26.5682 47.4034 26.3438 47.5753 26.1818 47.794C26.0227 48.0128 25.9432 48.2614 25.9432 48.5398C25.9432 48.7727 25.9986 48.973 26.1094 49.1406C26.223 49.3054 26.3679 49.4432 26.544 49.554C26.7202 49.6619 26.9048 49.7514 27.098 49.8224C27.2912 49.8906 27.4688 49.946 27.6307 49.9886L28.517 50.2273C28.7443 50.2869 28.9972 50.3693 29.2756 50.4744C29.5568 50.5795 29.8253 50.723 30.081 50.9048C30.3395 51.0838 30.5526 51.3139 30.7202 51.5952C30.8878 51.8764 30.9716 52.2216 30.9716 52.6307C30.9716 53.1023 30.848 53.5284 30.6009 53.9091C30.3565 54.2898 29.9986 54.5923 29.527 54.8168C29.0582 55.0412 28.4886 55.1534 27.8182 55.1534C27.1932 55.1534 26.652 55.0526 26.1946 54.8509C25.7401 54.6491 25.3821 54.3679 25.1207 54.0071C24.8622 53.6463 24.7159 53.2273 24.6818 52.75H25.7727C25.8011 53.0795 25.9119 53.3523 26.1051 53.5682C26.3011 53.7812 26.5483 53.9403 26.8466 54.0455C27.1477 54.1477 27.4716 54.1989 27.8182 54.1989C28.2216 54.1989 28.5838 54.1335 28.9048 54.0028C29.2259 53.8693 29.4801 53.6847 29.6676 53.4489C29.8551 53.2102 29.9489 52.9318 29.9489 52.6136C29.9489 52.3239 29.8679 52.0881 29.706 51.9062C29.544 51.7244 29.331 51.5767 29.0668 51.4631C28.8026 51.3494 28.517 51.25 28.2102 51.1648L27.1364 50.858C26.4545 50.6619 25.9148 50.3821 25.517 50.0185C25.1193 49.6548 24.9205 49.179 24.9205 48.5909C24.9205 48.1023 25.0526 47.6761 25.3168 47.3125C25.5838 46.946 25.9418 46.6619 26.3906 46.4602C26.8423 46.2557 27.3466 46.1534 27.9034 46.1534C28.4659 46.1534 28.9659 46.2543 29.4034 46.456C29.8409 46.6548 30.1875 46.9276 30.4432 47.2741C30.7017 47.6207 30.8381 48.0142 30.8523 48.4545H29.8295ZM35.3171 55.1364C34.6864 55.1364 34.1424 54.9972 33.685 54.7188C33.2305 54.4375 32.8796 54.0455 32.6325 53.5426C32.3881 53.0369 32.266 52.4489 32.266 51.7784C32.266 51.108 32.3881 50.517 32.6325 50.0057C32.8796 49.4915 33.2234 49.0909 33.6637 48.804C34.1069 48.5142 34.6239 48.3693 35.2148 48.3693C35.5558 48.3693 35.8924 48.4261 36.2248 48.5398C36.5572 48.6534 36.8597 48.8381 37.1325 49.0938C37.4052 49.3466 37.6225 49.6818 37.7844 50.0994C37.9464 50.517 38.0273 51.0312 38.0273 51.642V52.0682H32.9819V51.1989H37.0046C37.0046 50.8295 36.9308 50.5 36.783 50.2102C36.6381 49.9205 36.4308 49.6918 36.1609 49.5241C35.8938 49.3565 35.5785 49.2727 35.2148 49.2727C34.8143 49.2727 34.4677 49.3722 34.1751 49.571C33.8853 49.767 33.6623 50.0227 33.506 50.3381C33.3498 50.6534 33.2717 50.9915 33.2717 51.3523V51.9318C33.2717 52.4261 33.3569 52.8452 33.5273 53.1889C33.7006 53.5298 33.9407 53.7898 34.2475 53.9688C34.5543 54.1449 34.9109 54.233 35.3171 54.233C35.5813 54.233 35.82 54.196 36.033 54.1222C36.2489 54.0455 36.435 53.9318 36.5913 53.7812C36.7475 53.6278 36.8683 53.4375 36.9535 53.2102L37.9251 53.483C37.8228 53.8125 37.6509 54.1023 37.4094 54.3523C37.168 54.5994 36.8697 54.7926 36.5146 54.9318C36.1594 55.0682 35.7603 55.1364 35.3171 55.1364ZM39.5572 55V48.4545H40.5288V49.4432H40.5969C40.7163 49.1193 40.9322 48.8565 41.2447 48.6548C41.5572 48.4531 41.9094 48.3523 42.3015 48.3523C42.3754 48.3523 42.4677 48.3537 42.5785 48.3565C42.6893 48.3594 42.7731 48.3636 42.8299 48.3693V49.392C42.7958 49.3835 42.7177 49.3707 42.5955 49.3537C42.4762 49.3338 42.3498 49.3239 42.2163 49.3239C41.8981 49.3239 41.614 49.3906 41.364 49.5241C41.1168 49.6548 40.9208 49.8366 40.7759 50.0696C40.6339 50.2997 40.5629 50.5625 40.5629 50.858V55H39.5572ZM44.022 55V48.4545H45.0277V55H44.022ZM44.5334 47.3636C44.3374 47.3636 44.1683 47.2969 44.0263 47.1634C43.8871 47.0298 43.8175 46.8693 43.8175 46.6818C43.8175 46.4943 43.8871 46.3338 44.0263 46.2003C44.1683 46.0668 44.3374 46 44.5334 46C44.7294 46 44.897 46.0668 45.0362 46.2003C45.1783 46.3338 45.2493 46.4943 45.2493 46.6818C45.2493 46.8693 45.1783 47.0298 45.0362 47.1634C44.897 47.2969 44.7294 47.3636 44.5334 47.3636ZM49.614 55.1364C48.9833 55.1364 48.4393 54.9972 47.9819 54.7188C47.5273 54.4375 47.1765 54.0455 46.9293 53.5426C46.685 53.0369 46.5629 52.4489 46.5629 51.7784C46.5629 51.108 46.685 50.517 46.9293 50.0057C47.1765 49.4915 47.5202 49.0909 47.9606 48.804C48.4038 48.5142 48.9208 48.3693 49.5117 48.3693C49.8526 48.3693 50.1893 48.4261 50.5217 48.5398C50.854 48.6534 51.1566 48.8381 51.4293 49.0938C51.7021 49.3466 51.9194 49.6818 52.0813 50.0994C52.2433 50.517 52.3242 51.0312 52.3242 51.642V52.0682H47.2788V51.1989H51.3015C51.3015 50.8295 51.2276 50.5 51.0799 50.2102C50.935 49.9205 50.7276 49.6918 50.4577 49.5241C50.1907 49.3565 49.8754 49.2727 49.5117 49.2727C49.1112 49.2727 48.7646 49.3722 48.4719 49.571C48.1822 49.767 47.9592 50.0227 47.8029 50.3381C47.6467 50.6534 47.5685 50.9915 47.5685 51.3523V51.9318C47.5685 52.4261 47.6538 52.8452 47.8242 53.1889C47.9975 53.5298 48.2376 53.7898 48.5444 53.9688C48.8512 54.1449 49.2077 54.233 49.614 54.233C49.8782 54.233 50.1168 54.196 50.3299 54.1222C50.5458 54.0455 50.7319 53.9318 50.8881 53.7812C51.0444 53.6278 51.1651 53.4375 51.2504 53.2102L52.2219 53.483C52.1197 53.8125 51.9478 54.1023 51.7063 54.3523C51.4648 54.5994 51.1665 54.7926 50.8114 54.9318C50.4563 55.0682 50.0572 55.1364 49.614 55.1364ZM58.4904 49.9205L57.587 50.1761C57.5302 50.0256 57.4464 49.8793 57.3356 49.7372C57.2276 49.5923 57.0799 49.473 56.8924 49.3793C56.7049 49.2855 56.4648 49.2386 56.1722 49.2386C55.7717 49.2386 55.4379 49.331 55.1708 49.5156C54.9066 49.6974 54.7745 49.929 54.7745 50.2102C54.7745 50.4602 54.8654 50.6577 55.0472 50.8026C55.229 50.9474 55.5131 51.0682 55.8995 51.1648L56.8711 51.4034C57.4563 51.5455 57.8924 51.7628 58.1793 52.0554C58.4663 52.3452 58.6097 52.7187 58.6097 53.1761C58.6097 53.5511 58.5018 53.8864 58.2859 54.1818C58.0728 54.4773 57.7745 54.7102 57.391 54.8807C57.0075 55.0511 56.5614 55.1364 56.0529 55.1364C55.3853 55.1364 54.8327 54.9915 54.3952 54.7017C53.9577 54.4119 53.6808 53.9886 53.5643 53.4318L54.5188 53.1932C54.6097 53.5455 54.7816 53.8097 55.0344 53.9858C55.2901 54.1619 55.6239 54.25 56.0359 54.25C56.5046 54.25 56.8768 54.1506 57.1523 53.9517C57.4308 53.75 57.57 53.5085 57.57 53.2273C57.57 53 57.4904 52.8097 57.3313 52.6562C57.1722 52.5 56.9279 52.3835 56.5984 52.3068L55.5075 52.0511C54.908 51.9091 54.4677 51.6889 54.1864 51.3906C53.908 51.0895 53.7688 50.7131 53.7688 50.2614C53.7688 49.892 53.8725 49.5653 54.0799 49.2812C54.2901 48.9972 54.5756 48.7741 54.9364 48.6122C55.3001 48.4503 55.712 48.3693 56.1722 48.3693C56.82 48.3693 57.3285 48.5114 57.6978 48.7955C58.07 49.0795 58.3342 49.4545 58.4904 49.9205Z" fill="white"/>
</svg>
