<svg width="86" height="100" viewBox="0 0 86 100" fill="none" xmlns="http://www.w3.org/2000/svg">
<rect width="86" height="100" fill="#171515"/>
<path d="M48.7292 36.375L43 29.0208L47.1042 28.2083L52.8125 35.5625L48.7292 36.375ZM63.0417 33.5417L61.4167 25.375L53.2292 27L58.9375 34.375L63.0417 33.5417ZM42.6042 37.6042L36.8959 30.2083L32.7917 31.0625L38.5209 38.4167L42.6042 37.6042ZM22.1667 41.6667V62.5C22.1667 63.6051 22.6057 64.6649 23.3871 65.4463C24.1685 66.2277 25.2283 66.6667 26.3334 66.6667H59.6667C61.9792 66.6667 63.8334 64.8125 63.8334 62.5V41.6667H22.1667ZM26.6667 32.2917L24.625 32.6875C23.5447 32.9078 22.595 33.5457 21.9825 34.4626C21.37 35.3794 21.1442 36.5009 21.3542 37.5833L22.1667 41.6667L32.375 39.6458L26.6667 32.2917ZM40.9167 75H45.0834V70.8333H40.9167V75ZM32.5834 75H36.75V70.8333H32.5834V75ZM49.25 75H53.4167V70.8333H49.25V75Z" fill="white" fill-opacity="0.47"/>
<path d="M25.0568 46.2727H26.3182L29.2841 53.517H29.3864L32.3523 46.2727H33.6136V55H32.625V48.3693H32.5398L29.8125 55H28.858L26.1307 48.3693H26.0455V55H25.0568V46.2727ZM38.2553 55.1364C37.6644 55.1364 37.146 54.9957 36.6999 54.7145C36.2567 54.4332 35.9102 54.0398 35.6602 53.5341C35.413 53.0284 35.2894 52.4375 35.2894 51.7614C35.2894 51.0795 35.413 50.4844 35.6602 49.9759C35.9102 49.4673 36.2567 49.0724 36.6999 48.7912C37.146 48.5099 37.6644 48.3693 38.2553 48.3693C38.8462 48.3693 39.3633 48.5099 39.8065 48.7912C40.2525 49.0724 40.5991 49.4673 40.8462 49.9759C41.0962 50.4844 41.2212 51.0795 41.2212 51.7614C41.2212 52.4375 41.0962 53.0284 40.8462 53.5341C40.5991 54.0398 40.2525 54.4332 39.8065 54.7145C39.3633 54.9957 38.8462 55.1364 38.2553 55.1364ZM38.2553 54.233C38.7042 54.233 39.0735 54.1179 39.3633 53.8878C39.6531 53.6577 39.8675 53.3551 40.0067 52.9801C40.146 52.6051 40.2156 52.1989 40.2156 51.7614C40.2156 51.3239 40.146 50.9162 40.0067 50.5384C39.8675 50.1605 39.6531 49.8551 39.3633 49.6222C39.0735 49.3892 38.7042 49.2727 38.2553 49.2727C37.8065 49.2727 37.4371 49.3892 37.1474 49.6222C36.8576 49.8551 36.6431 50.1605 36.5039 50.5384C36.3647 50.9162 36.2951 51.3239 36.2951 51.7614C36.2951 52.1989 36.3647 52.6051 36.5039 52.9801C36.6431 53.3551 36.8576 53.6577 37.1474 53.8878C37.4371 54.1179 37.8065 54.233 38.2553 54.233ZM47.8743 48.4545L45.4538 55H44.4311L42.0107 48.4545H43.1016L44.9084 53.6705H44.9766L46.7834 48.4545H47.8743ZM49.2017 55V48.4545H50.2074V55H49.2017ZM49.7131 47.3636C49.517 47.3636 49.348 47.2969 49.206 47.1634C49.0668 47.0298 48.9972 46.8693 48.9972 46.6818C48.9972 46.4943 49.0668 46.3338 49.206 46.2003C49.348 46.0668 49.517 46 49.7131 46C49.9091 46 50.0767 46.0668 50.2159 46.2003C50.358 46.3338 50.429 46.4943 50.429 46.6818C50.429 46.8693 50.358 47.0298 50.2159 47.1634C50.0767 47.2969 49.9091 47.3636 49.7131 47.3636ZM54.7937 55.1364C54.163 55.1364 53.619 54.9972 53.1616 54.7188C52.707 54.4375 52.3562 54.0455 52.109 53.5426C51.8647 53.0369 51.7425 52.4489 51.7425 51.7784C51.7425 51.108 51.8647 50.517 52.109 50.0057C52.3562 49.4915 52.6999 49.0909 53.1403 48.804C53.5835 48.5142 54.1005 48.3693 54.6914 48.3693C55.0323 48.3693 55.369 48.4261 55.7013 48.5398C56.0337 48.6534 56.3363 48.8381 56.609 49.0938C56.8817 49.3466 57.0991 49.6818 57.261 50.0994C57.4229 50.517 57.5039 51.0312 57.5039 51.642V52.0682H52.4585V51.1989H56.4812C56.4812 50.8295 56.4073 50.5 56.2596 50.2102C56.1147 49.9205 55.9073 49.6918 55.6374 49.5241C55.3704 49.3565 55.055 49.2727 54.6914 49.2727C54.2908 49.2727 53.9442 49.3722 53.6516 49.571C53.3619 49.767 53.1388 50.0227 52.9826 50.3381C52.8263 50.6534 52.7482 50.9915 52.7482 51.3523V51.9318C52.7482 52.4261 52.8335 52.8452 53.0039 53.1889C53.1772 53.5298 53.4173 53.7898 53.7241 53.9688C54.0309 54.1449 54.3874 54.233 54.7937 54.233C55.0579 54.233 55.2965 54.196 55.5096 54.1222C55.7255 54.0455 55.9116 53.9318 56.0678 53.7812C56.2241 53.6278 56.3448 53.4375 56.43 53.2102L57.4016 53.483C57.2994 53.8125 57.1275 54.1023 56.886 54.3523C56.6445 54.5994 56.3462 54.7926 55.9911 54.9318C55.636 55.0682 55.2369 55.1364 54.7937 55.1364ZM63.6701 49.9205L62.7667 50.1761C62.7099 50.0256 62.6261 49.8793 62.5153 49.7372C62.4073 49.5923 62.2596 49.473 62.0721 49.3793C61.8846 49.2855 61.6445 49.2386 61.3519 49.2386C60.9513 49.2386 60.6175 49.331 60.3505 49.5156C60.0863 49.6974 59.9542 49.929 59.9542 50.2102C59.9542 50.4602 60.0451 50.6577 60.2269 50.8026C60.4087 50.9474 60.6928 51.0682 61.0792 51.1648L62.0508 51.4034C62.636 51.5455 63.0721 51.7628 63.359 52.0554C63.646 52.3452 63.7894 52.7187 63.7894 53.1761C63.7894 53.5511 63.6815 53.8864 63.4656 54.1818C63.2525 54.4773 62.9542 54.7102 62.5707 54.8807C62.1871 55.0511 61.7411 55.1364 61.2326 55.1364C60.565 55.1364 60.0124 54.9915 59.5749 54.7017C59.1374 54.4119 58.8604 53.9886 58.744 53.4318L59.6985 53.1932C59.7894 53.5455 59.9613 53.8097 60.2141 53.9858C60.4698 54.1619 60.8036 54.25 61.2156 54.25C61.6843 54.25 62.0565 54.1506 62.332 53.9517C62.6104 53.75 62.7496 53.5085 62.7496 53.2273C62.7496 53 62.6701 52.8097 62.511 52.6562C62.3519 52.5 62.1076 52.3835 61.7781 52.3068L60.6871 52.0511C60.0877 51.9091 59.6474 51.6889 59.3661 51.3906C59.0877 51.0895 58.9485 50.7131 58.9485 50.2614C58.9485 49.892 59.0522 49.5653 59.2596 49.2812C59.4698 48.9972 59.7553 48.7741 60.1161 48.6122C60.4798 48.4503 60.8917 48.3693 61.3519 48.3693C61.9996 48.3693 62.5082 48.5114 62.8775 48.7955C63.2496 49.0795 63.5138 49.4545 63.6701 49.9205Z" fill="white"/>
</svg>
